<svg xmlns="http://www.w3.org/2000/svg" width="61.898" height="64" viewBox="0 0 61.898 64"><path d="M227.84,414.671c0-17.035,13.4-30.9,29.88-30.9s29.882,13.862,29.882,30.9-13.4,30.9-29.882,30.9S227.84,431.706,227.84,414.671Zm-1.069,0c0,17.645,13.883,32,30.949,32s30.949-14.355,30.949-32-13.885-32-30.949-32S226.771,397.028,226.771,414.671Z" transform="translate(-226.771 -382.671)" fill="#fff" fill-rule="evenodd"/><path d="M273.258,407.094c-.232.2-.484.405-.761.625-1.711,1.357-4.408,2.445-8.156,3.481-7.771,2.155-13.409,2.476-19.83,4.1a26.529,26.529,0,0,0-3.762,1.262c1.212.618,2.5,1.2,3.822,1.719a54.98,54.98,0,0,1,7.63-1.779c1.438-.25,5.86-1.055,9.072-1.756,5.769-1.272,14.235-4.035,11.984-7.653Zm-3.719-7.51a29.017,29.017,0,0,0-4.4-1.586,10.1,10.1,0,0,1-2.8,1.62,45.031,45.031,0,0,1,5.279,1.473h0c.31.159,1.7-1.189,1.917-1.506Zm-28.314,7.992c7.545-2.29,15.478-2.993,23.5-5.21a17.657,17.657,0,0,0-8.168-.838,88.06,88.06,0,0,0-14.638,3.059c-1.775.544-11.134,3.283-8.433,7.117h0c0,.048,1.607-2.275,7.74-4.128Zm-5.21,13.167c-.012.716.4,1.353,1.328,2.126a3.186,3.186,0,0,1,.554-1.04h0c-.641-.333-1.268-.7-1.882-1.086Zm3.547-.364a13.635,13.635,0,0,1,2.031-1.016q-1.613-.686-3.293-1.5a7.9,7.9,0,0,0-1.315,1.028h0c.852.511,1.7,1.014,2.577,1.483Zm29.024-16.584a39.541,39.541,0,0,1-6.84,2.3c-2.561.664-8.815,1.595-15.529,3.1-2.137.476-7.891,1.884-10.72,4.37a12.27,12.27,0,0,0,2.159,1.326,17.821,17.821,0,0,1,5.125-2.164,93.064,93.064,0,0,1,10.9-2.23,97.031,97.031,0,0,0,14.435-3.522,12.1,12.1,0,0,0,3.276-1.754,11.2,11.2,0,0,0-2.811-1.425Zm2.23-1.411a14.662,14.662,0,0,1,2.079,1.14c.474-.931.184-1.537-.8-2.4h0a9.324,9.324,0,0,1-1.28,1.26Zm-35.158,14.1c-.67-.393-1.131-.668-1.7-1.069-.308.687.261,1.438.875,1.8h0c.257-.263.552-.482.821-.728Zm32.134-21.553a4.542,4.542,0,0,1-1.069,1.562,35.1,35.1,0,0,1,3.382,1.169c-.134-1.04-1.313-2.052-2.312-2.73Zm-35.529,6.65c7.912-5.365,16.655-8.487,31.479-5.839a2.675,2.675,0,0,0,1.483-1.957c-3.7-1.38-7.715-1.868-12.9-1.777-4.677.128-13.072,1.926-17.552,4.662l1.361-1.758c3.142-1.9,11.314-4.43,17.439-4.55a33.489,33.489,0,0,1,11.695,1.591c-.443-.908-1.516-1.361-3.065-2.081-4.972-2.308-14.257-2.523-21.867.933a23.388,23.388,0,0,1,3.138-1.835,27.092,27.092,0,0,1,11.742-2.246c4.1.072,8.971,1.547,11.955,4.61a4.573,4.573,0,0,1,.908,1.758c2.364,1.237,3.731,2.391,4.507,3.762a3.984,3.984,0,0,1,.306,2.321,6.1,6.1,0,0,1,1.928,1.783,4.423,4.423,0,0,1,.683,1.781,3.166,3.166,0,0,1-.6,2.625,3.6,3.6,0,0,1,1.547,2.081c.37,1.839-.774,3.628-2.288,5.026a24.349,24.349,0,0,1-8.683,4.265c-6.2,1.613-11.674,2.3-16.028,3.127a33.749,33.749,0,0,0,8.94,1.131c9.242,0,17.424-4.524,17.424-4.524s-.19.6-.368,1.107c-5.868,3.68-15.225,5.231-19.2,5.043a41.052,41.052,0,0,1-10.8-1.874,19.807,19.807,0,0,0-3,1.061,34.245,34.245,0,0,0,13.256,3.252c4.426.333,11.757-.769,17.945-3.086-.279.287-.426.755-.714,1.028a40.406,40.406,0,0,1-13.234,3.589A48.839,48.839,0,0,1,248.7,425.9a36.157,36.157,0,0,1-8.162-2.792,2.014,2.014,0,0,0-.8,1.349c10.187,5.5,19.73,5.622,30.581,2.137l-.993.985c-11.953,5.008-21.3,3.069-28.529-.54a6.287,6.287,0,0,1-.728-.366c.662,1.21,6.193,5.378,12.365,5.9a30.159,30.159,0,0,0,12.532-1.669l-1.8.976a21.175,21.175,0,0,1-10.983,2.1,20.826,20.826,0,0,1-13.376-5.649,5.442,5.442,0,0,1-1.535-2.954,8.734,8.734,0,0,1-3.578-3.231,3.528,3.528,0,0,1-.283-2.523,3.606,3.606,0,0,1,.194-.695,7.034,7.034,0,0,1-1.955-1.882,3.351,3.351,0,0,1,.223-3.431,5.286,5.286,0,0,1-1.026-1.553,4.842,4.842,0,0,1-.174-1.874,6.07,6.07,0,0,1,1.487-3.1c1.613-1.919,4.139-3.411,8.482-4.9a74.69,74.69,0,0,1,9.155-2.441c3.738-.893,8.2-1.181,11.951-2.532-10.429-1.9-21.259-.178-30.095,6.114Z" transform="translate(-222.618 -378.35)" fill="#fff" fill-rule="evenodd"/></svg>