<svg xmlns="http://www.w3.org/2000/svg" width="42.819" height="64" viewBox="0 0 42.819 64"><path d="M317.748,515.595a3.555,3.555,0,0,1,1.556.221l-.111-14.48h1.78a137.671,137.671,0,0,0,.556,14.81,21.13,21.13,0,0,1,6.9,38.578c-.111-.109-.334-.443-.556-.664h0c-6.339-8.068-7.9-20.116-8.342-30.618a22.294,22.294,0,0,0,2.671.442,44.874,44.874,0,0,0,11.454,23.876,14.2,14.2,0,0,0-.888-19.012,21.153,21.153,0,0,0-10.232-6.079,23.5,23.5,0,0,0-5.673-.664,24.851,24.851,0,0,0-5.671.664c-8.231,2.1-14.347,8.512-14.347,16.138a15.315,15.315,0,0,0,3.114,8.953,44.1,44.1,0,0,0,11.454-23.876c.892-.11,1.78-.221,2.782-.442-.445,10.5-2,22.438-8.342,30.508v-.111a6.1,6.1,0,0,1-.668.885,21.235,21.235,0,0,1,7.12-38.578c.555-10.831.443-14.81.443-14.81h1.779l-.111,14.48a3.31,3.31,0,0,1,1.447-.221V494.26h1.892v21.335Zm.111,7.736c.222,10.059.89,22.661,4.227,31.172.334.883.888,1.879,1.335,2.764a26.271,26.271,0,0,1-6.563.993,24.77,24.77,0,0,1-6.562-.993c.556-1.106,1-2.1,1.447-3.1,3.112-8.4,4-20.891,4.114-30.84h2Z" transform="translate(-295.504 -494.26)" fill="#fff" fill-rule="evenodd"/></svg>